<?xml version="1.0" encoding="utf-8" standalone="no"?>
<!DOCTYPE svg PUBLIC "-//W3C//DTD SVG 1.1//EN"
  "http://www.w3.org/Graphics/SVG/1.1/DTD/svg11.dtd">
<svg xmlns:xlink="http://www.w3.org/1999/xlink" width="420.909687pt" height="420.814219pt" viewBox="0 0 420.909687 420.814219" xmlns="http://www.w3.org/2000/svg" version="1.1">
 <metadata>
  <rdf:RDF xmlns:dc="http://purl.org/dc/elements/1.1/" xmlns:cc="http://creativecommons.org/ns#" xmlns:rdf="http://www.w3.org/1999/02/22-rdf-syntax-ns#">
   <cc:Work>
    <dc:type rdf:resource="http://purl.org/dc/dcmitype/StillImage"/>
    <dc:date>2025-09-25T16:54:12.716752</dc:date>
    <dc:format>image/svg+xml</dc:format>
    <dc:creator>
     <cc:Agent>
      <dc:title>Matplotlib v3.10.6, https://matplotlib.org/</dc:title>
     </cc:Agent>
    </dc:creator>
   </cc:Work>
  </rdf:RDF>
 </metadata>
 <defs>
  <style type="text/css">*{stroke-linejoin: round; stroke-linecap: butt}</style>
 </defs>
 <g id="figure_1">
  <g id="patch_1">
   <path d="M 0 420.814219 
L 420.909687 420.814219 
L 420.909687 0 
L 0 0 
z
" style="fill: #ffffff"/>
  </g>
  <g id="axes_1">
   <g id="patch_2">
    <path d="M 53.675938 378.793125 
L 413.709687 378.793125 
L 413.709687 21.789375 
L 53.675938 21.789375 
z
" style="fill: #ffffff"/>
   </g>
   <g id="matplotlib.axis_1">
    <g id="xtick_1">
     <g id="line2d_1">
      <path d="M 56.755405 378.793125 
L 56.755405 21.789375 
" clip-path="url(#p3b4cef9d12)" style="fill: none; stroke: #cccccc; stroke-linecap: round"/>
     </g>
     <g id="text_1">
      <!-- −2.0 -->
      <g style="fill: #262626" transform="translate(45.898061 396.166719) scale(0.11 -0.11)">
       <defs>
        <path id="ArialMT-2212" d="M 3381 1997 
L 356 1997 
L 356 2522 
L 3381 2522 
L 3381 1997 
z
" transform="scale(0.015625)"/>
        <path id="ArialMT-32" d="M 3222 541 
L 3222 0 
L 194 0 
Q 188 203 259 391 
Q 375 700 629 1000 
Q 884 1300 1366 1694 
Q 2113 2306 2375 2664 
Q 2638 3022 2638 3341 
Q 2638 3675 2398 3904 
Q 2159 4134 1775 4134 
Q 1369 4134 1125 3890 
Q 881 3647 878 3216 
L 300 3275 
Q 359 3922 746 4261 
Q 1134 4600 1788 4600 
Q 2447 4600 2831 4234 
Q 3216 3869 3216 3328 
Q 3216 3053 3103 2787 
Q 2991 2522 2730 2228 
Q 2469 1934 1863 1422 
Q 1356 997 1212 845 
Q 1069 694 975 541 
L 3222 541 
z
" transform="scale(0.015625)"/>
        <path id="ArialMT-2e" d="M 581 0 
L 581 641 
L 1222 641 
L 1222 0 
L 581 0 
z
" transform="scale(0.015625)"/>
        <path id="ArialMT-30" d="M 266 2259 
Q 266 3072 433 3567 
Q 600 4063 929 4331 
Q 1259 4600 1759 4600 
Q 2128 4600 2406 4451 
Q 2684 4303 2865 4023 
Q 3047 3744 3150 3342 
Q 3253 2941 3253 2259 
Q 3253 1453 3087 958 
Q 2922 463 2592 192 
Q 2263 -78 1759 -78 
Q 1097 -78 719 397 
Q 266 969 266 2259 
z
M 844 2259 
Q 844 1131 1108 757 
Q 1372 384 1759 384 
Q 2147 384 2411 759 
Q 2675 1134 2675 2259 
Q 2675 3391 2411 3762 
Q 2147 4134 1753 4134 
Q 1366 4134 1134 3806 
Q 844 3388 844 2259 
z
" transform="scale(0.015625)"/>
       </defs>
       <use xlink:href="#ArialMT-2212"/>
       <use xlink:href="#ArialMT-32" transform="translate(58.398438 0)"/>
       <use xlink:href="#ArialMT-2e" transform="translate(114.013672 0)"/>
       <use xlink:href="#ArialMT-30" transform="translate(141.796875 0)"/>
      </g>
     </g>
    </g>
    <g id="xtick_2">
     <g id="line2d_2">
      <path d="M 100.078203 378.793125 
L 100.078203 21.789375 
" clip-path="url(#p3b4cef9d12)" style="fill: none; stroke: #cccccc; stroke-linecap: round"/>
     </g>
     <g id="text_2">
      <!-- −1.5 -->
      <g style="fill: #262626" transform="translate(89.22086 396.166719) scale(0.11 -0.11)">
       <defs>
        <path id="ArialMT-31" d="M 2384 0 
L 1822 0 
L 1822 3584 
Q 1619 3391 1289 3197 
Q 959 3003 697 2906 
L 697 3450 
Q 1169 3672 1522 3987 
Q 1875 4303 2022 4600 
L 2384 4600 
L 2384 0 
z
" transform="scale(0.015625)"/>
        <path id="ArialMT-35" d="M 266 1200 
L 856 1250 
Q 922 819 1161 601 
Q 1400 384 1738 384 
Q 2144 384 2425 690 
Q 2706 997 2706 1503 
Q 2706 1984 2436 2262 
Q 2166 2541 1728 2541 
Q 1456 2541 1237 2417 
Q 1019 2294 894 2097 
L 366 2166 
L 809 4519 
L 3088 4519 
L 3088 3981 
L 1259 3981 
L 1013 2750 
Q 1425 3038 1878 3038 
Q 2478 3038 2890 2622 
Q 3303 2206 3303 1553 
Q 3303 931 2941 478 
Q 2500 -78 1738 -78 
Q 1113 -78 717 272 
Q 322 622 266 1200 
z
" transform="scale(0.015625)"/>
       </defs>
       <use xlink:href="#ArialMT-2212"/>
       <use xlink:href="#ArialMT-31" transform="translate(58.398438 0)"/>
       <use xlink:href="#ArialMT-2e" transform="translate(114.013672 0)"/>
       <use xlink:href="#ArialMT-35" transform="translate(141.796875 0)"/>
      </g>
     </g>
    </g>
    <g id="xtick_3">
     <g id="line2d_3">
      <path d="M 143.401002 378.793125 
L 143.401002 21.789375 
" clip-path="url(#p3b4cef9d12)" style="fill: none; stroke: #cccccc; stroke-linecap: round"/>
     </g>
     <g id="text_3">
      <!-- −1.0 -->
      <g style="fill: #262626" transform="translate(132.543658 396.166719) scale(0.11 -0.11)">
       <use xlink:href="#ArialMT-2212"/>
       <use xlink:href="#ArialMT-31" transform="translate(58.398438 0)"/>
       <use xlink:href="#ArialMT-2e" transform="translate(114.013672 0)"/>
       <use xlink:href="#ArialMT-30" transform="translate(141.796875 0)"/>
      </g>
     </g>
    </g>
    <g id="xtick_4">
     <g id="line2d_4">
      <path d="M 186.7238 378.793125 
L 186.7238 21.789375 
" clip-path="url(#p3b4cef9d12)" style="fill: none; stroke: #cccccc; stroke-linecap: round"/>
     </g>
     <g id="text_4">
      <!-- −0.5 -->
      <g style="fill: #262626" transform="translate(175.866456 396.166719) scale(0.11 -0.11)">
       <use xlink:href="#ArialMT-2212"/>
       <use xlink:href="#ArialMT-30" transform="translate(58.398438 0)"/>
       <use xlink:href="#ArialMT-2e" transform="translate(114.013672 0)"/>
       <use xlink:href="#ArialMT-35" transform="translate(141.796875 0)"/>
      </g>
     </g>
    </g>
    <g id="xtick_5">
     <g id="line2d_5">
      <path d="M 230.046598 378.793125 
L 230.046598 21.789375 
" clip-path="url(#p3b4cef9d12)" style="fill: none; stroke: #cccccc; stroke-linecap: round"/>
     </g>
     <g id="text_5">
      <!-- 0.0 -->
      <g style="fill: #262626" transform="translate(222.401598 396.166719) scale(0.11 -0.11)">
       <use xlink:href="#ArialMT-30"/>
       <use xlink:href="#ArialMT-2e" transform="translate(55.615234 0)"/>
       <use xlink:href="#ArialMT-30" transform="translate(83.398438 0)"/>
      </g>
     </g>
    </g>
    <g id="xtick_6">
     <g id="line2d_6">
      <path d="M 273.369396 378.793125 
L 273.369396 21.789375 
" clip-path="url(#p3b4cef9d12)" style="fill: none; stroke: #cccccc; stroke-linecap: round"/>
     </g>
     <g id="text_6">
      <!-- 0.5 -->
      <g style="fill: #262626" transform="translate(265.724396 396.166719) scale(0.11 -0.11)">
       <use xlink:href="#ArialMT-30"/>
       <use xlink:href="#ArialMT-2e" transform="translate(55.615234 0)"/>
       <use xlink:href="#ArialMT-35" transform="translate(83.398438 0)"/>
      </g>
     </g>
    </g>
    <g id="xtick_7">
     <g id="line2d_7">
      <path d="M 316.692195 378.793125 
L 316.692195 21.789375 
" clip-path="url(#p3b4cef9d12)" style="fill: none; stroke: #cccccc; stroke-linecap: round"/>
     </g>
     <g id="text_7">
      <!-- 1.0 -->
      <g style="fill: #262626" transform="translate(309.047195 396.166719) scale(0.11 -0.11)">
       <use xlink:href="#ArialMT-31"/>
       <use xlink:href="#ArialMT-2e" transform="translate(55.615234 0)"/>
       <use xlink:href="#ArialMT-30" transform="translate(83.398438 0)"/>
      </g>
     </g>
    </g>
    <g id="xtick_8">
     <g id="line2d_8">
      <path d="M 360.014993 378.793125 
L 360.014993 21.789375 
" clip-path="url(#p3b4cef9d12)" style="fill: none; stroke: #cccccc; stroke-linecap: round"/>
     </g>
     <g id="text_8">
      <!-- 1.5 -->
      <g style="fill: #262626" transform="translate(352.369993 396.166719) scale(0.11 -0.11)">
       <use xlink:href="#ArialMT-31"/>
       <use xlink:href="#ArialMT-2e" transform="translate(55.615234 0)"/>
       <use xlink:href="#ArialMT-35" transform="translate(83.398438 0)"/>
      </g>
     </g>
    </g>
    <g id="xtick_9">
     <g id="line2d_9">
      <path d="M 403.337791 378.793125 
L 403.337791 21.789375 
" clip-path="url(#p3b4cef9d12)" style="fill: none; stroke: #cccccc; stroke-linecap: round"/>
     </g>
     <g id="text_9">
      <!-- 2.0 -->
      <g style="fill: #262626" transform="translate(395.692791 396.166719) scale(0.11 -0.11)">
       <use xlink:href="#ArialMT-32"/>
       <use xlink:href="#ArialMT-2e" transform="translate(55.615234 0)"/>
       <use xlink:href="#ArialMT-30" transform="translate(83.398438 0)"/>
      </g>
     </g>
    </g>
    <g id="text_10">
     <!-- Actual (y) -->
     <g style="fill: #262626" transform="translate(208.355 411.088594) scale(0.12 -0.12)">
      <defs>
       <path id="ArialMT-41" d="M -9 0 
L 1750 4581 
L 2403 4581 
L 4278 0 
L 3588 0 
L 3053 1388 
L 1138 1388 
L 634 0 
L -9 0 
z
M 1313 1881 
L 2866 1881 
L 2388 3150 
Q 2169 3728 2063 4100 
Q 1975 3659 1816 3225 
L 1313 1881 
z
" transform="scale(0.015625)"/>
       <path id="ArialMT-63" d="M 2588 1216 
L 3141 1144 
Q 3050 572 2676 248 
Q 2303 -75 1759 -75 
Q 1078 -75 664 370 
Q 250 816 250 1647 
Q 250 2184 428 2587 
Q 606 2991 970 3192 
Q 1334 3394 1763 3394 
Q 2303 3394 2647 3120 
Q 2991 2847 3088 2344 
L 2541 2259 
Q 2463 2594 2264 2762 
Q 2066 2931 1784 2931 
Q 1359 2931 1093 2626 
Q 828 2322 828 1663 
Q 828 994 1084 691 
Q 1341 388 1753 388 
Q 2084 388 2306 591 
Q 2528 794 2588 1216 
z
" transform="scale(0.015625)"/>
       <path id="ArialMT-74" d="M 1650 503 
L 1731 6 
Q 1494 -44 1306 -44 
Q 1000 -44 831 53 
Q 663 150 594 308 
Q 525 466 525 972 
L 525 2881 
L 113 2881 
L 113 3319 
L 525 3319 
L 525 4141 
L 1084 4478 
L 1084 3319 
L 1650 3319 
L 1650 2881 
L 1084 2881 
L 1084 941 
Q 1084 700 1114 631 
Q 1144 563 1211 522 
Q 1278 481 1403 481 
Q 1497 481 1650 503 
z
" transform="scale(0.015625)"/>
       <path id="ArialMT-75" d="M 2597 0 
L 2597 488 
Q 2209 -75 1544 -75 
Q 1250 -75 995 37 
Q 741 150 617 320 
Q 494 491 444 738 
Q 409 903 409 1263 
L 409 3319 
L 972 3319 
L 972 1478 
Q 972 1038 1006 884 
Q 1059 663 1231 536 
Q 1403 409 1656 409 
Q 1909 409 2131 539 
Q 2353 669 2445 892 
Q 2538 1116 2538 1541 
L 2538 3319 
L 3100 3319 
L 3100 0 
L 2597 0 
z
" transform="scale(0.015625)"/>
       <path id="ArialMT-61" d="M 2588 409 
Q 2275 144 1986 34 
Q 1697 -75 1366 -75 
Q 819 -75 525 192 
Q 231 459 231 875 
Q 231 1119 342 1320 
Q 453 1522 633 1644 
Q 813 1766 1038 1828 
Q 1203 1872 1538 1913 
Q 2219 1994 2541 2106 
Q 2544 2222 2544 2253 
Q 2544 2597 2384 2738 
Q 2169 2928 1744 2928 
Q 1347 2928 1158 2789 
Q 969 2650 878 2297 
L 328 2372 
Q 403 2725 575 2942 
Q 747 3159 1072 3276 
Q 1397 3394 1825 3394 
Q 2250 3394 2515 3294 
Q 2781 3194 2906 3042 
Q 3031 2891 3081 2659 
Q 3109 2516 3109 2141 
L 3109 1391 
Q 3109 606 3145 398 
Q 3181 191 3288 0 
L 2700 0 
Q 2613 175 2588 409 
z
M 2541 1666 
Q 2234 1541 1622 1453 
Q 1275 1403 1131 1340 
Q 988 1278 909 1158 
Q 831 1038 831 891 
Q 831 666 1001 516 
Q 1172 366 1500 366 
Q 1825 366 2078 508 
Q 2331 650 2450 897 
Q 2541 1088 2541 1459 
L 2541 1666 
z
" transform="scale(0.015625)"/>
       <path id="ArialMT-6c" d="M 409 0 
L 409 4581 
L 972 4581 
L 972 0 
L 409 0 
z
" transform="scale(0.015625)"/>
       <path id="ArialMT-20" transform="scale(0.015625)"/>
       <path id="ArialMT-28" d="M 1497 -1347 
Q 1031 -759 709 28 
Q 388 816 388 1659 
Q 388 2403 628 3084 
Q 909 3875 1497 4659 
L 1900 4659 
Q 1522 4009 1400 3731 
Q 1209 3300 1100 2831 
Q 966 2247 966 1656 
Q 966 153 1900 -1347 
L 1497 -1347 
z
" transform="scale(0.015625)"/>
       <path id="ArialMT-79" d="M 397 -1278 
L 334 -750 
Q 519 -800 656 -800 
Q 844 -800 956 -737 
Q 1069 -675 1141 -563 
Q 1194 -478 1313 -144 
Q 1328 -97 1363 -6 
L 103 3319 
L 709 3319 
L 1400 1397 
Q 1534 1031 1641 628 
Q 1738 1016 1872 1384 
L 2581 3319 
L 3144 3319 
L 1881 -56 
Q 1678 -603 1566 -809 
Q 1416 -1088 1222 -1217 
Q 1028 -1347 759 -1347 
Q 597 -1347 397 -1278 
z
" transform="scale(0.015625)"/>
       <path id="ArialMT-29" d="M 791 -1347 
L 388 -1347 
Q 1322 153 1322 1656 
Q 1322 2244 1188 2822 
Q 1081 3291 891 3722 
Q 769 4003 388 4659 
L 791 4659 
Q 1378 3875 1659 3084 
Q 1900 2403 1900 1659 
Q 1900 816 1576 28 
Q 1253 -759 791 -1347 
z
" transform="scale(0.015625)"/>
      </defs>
      <use xlink:href="#ArialMT-41"/>
      <use xlink:href="#ArialMT-63" transform="translate(66.699219 0)"/>
      <use xlink:href="#ArialMT-74" transform="translate(116.699219 0)"/>
      <use xlink:href="#ArialMT-75" transform="translate(144.482422 0)"/>
      <use xlink:href="#ArialMT-61" transform="translate(200.097656 0)"/>
      <use xlink:href="#ArialMT-6c" transform="translate(255.712891 0)"/>
      <use xlink:href="#ArialMT-20" transform="translate(277.929688 0)"/>
      <use xlink:href="#ArialMT-28" transform="translate(305.712891 0)"/>
      <use xlink:href="#ArialMT-79" transform="translate(339.013672 0)"/>
      <use xlink:href="#ArialMT-29" transform="translate(389.013672 0)"/>
     </g>
    </g>
   </g>
   <g id="matplotlib.axis_2">
    <g id="ytick_1">
     <g id="line2d_10">
      <path d="M 53.675938 375.538398 
L 413.709687 375.538398 
" clip-path="url(#p3b4cef9d12)" style="fill: none; stroke: #cccccc; stroke-linecap: round"/>
     </g>
     <g id="text_11">
      <!-- −2.0 -->
      <g style="fill: #262626" transform="translate(22.46125 379.475195) scale(0.11 -0.11)">
       <use xlink:href="#ArialMT-2212"/>
       <use xlink:href="#ArialMT-32" transform="translate(58.398438 0)"/>
       <use xlink:href="#ArialMT-2e" transform="translate(114.013672 0)"/>
       <use xlink:href="#ArialMT-30" transform="translate(141.796875 0)"/>
      </g>
     </g>
    </g>
    <g id="ytick_2">
     <g id="line2d_11">
      <path d="M 53.675938 332.545189 
L 413.709687 332.545189 
" clip-path="url(#p3b4cef9d12)" style="fill: none; stroke: #cccccc; stroke-linecap: round"/>
     </g>
     <g id="text_12">
      <!-- −1.5 -->
      <g style="fill: #262626" transform="translate(22.46125 336.481986) scale(0.11 -0.11)">
       <use xlink:href="#ArialMT-2212"/>
       <use xlink:href="#ArialMT-31" transform="translate(58.398438 0)"/>
       <use xlink:href="#ArialMT-2e" transform="translate(114.013672 0)"/>
       <use xlink:href="#ArialMT-35" transform="translate(141.796875 0)"/>
      </g>
     </g>
    </g>
    <g id="ytick_3">
     <g id="line2d_12">
      <path d="M 53.675938 289.55198 
L 413.709687 289.55198 
" clip-path="url(#p3b4cef9d12)" style="fill: none; stroke: #cccccc; stroke-linecap: round"/>
     </g>
     <g id="text_13">
      <!-- −1.0 -->
      <g style="fill: #262626" transform="translate(22.46125 293.488777) scale(0.11 -0.11)">
       <use xlink:href="#ArialMT-2212"/>
       <use xlink:href="#ArialMT-31" transform="translate(58.398438 0)"/>
       <use xlink:href="#ArialMT-2e" transform="translate(114.013672 0)"/>
       <use xlink:href="#ArialMT-30" transform="translate(141.796875 0)"/>
      </g>
     </g>
    </g>
    <g id="ytick_4">
     <g id="line2d_13">
      <path d="M 53.675938 246.558772 
L 413.709687 246.558772 
" clip-path="url(#p3b4cef9d12)" style="fill: none; stroke: #cccccc; stroke-linecap: round"/>
     </g>
     <g id="text_14">
      <!-- −0.5 -->
      <g style="fill: #262626" transform="translate(22.46125 250.495568) scale(0.11 -0.11)">
       <use xlink:href="#ArialMT-2212"/>
       <use xlink:href="#ArialMT-30" transform="translate(58.398438 0)"/>
       <use xlink:href="#ArialMT-2e" transform="translate(114.013672 0)"/>
       <use xlink:href="#ArialMT-35" transform="translate(141.796875 0)"/>
      </g>
     </g>
    </g>
    <g id="ytick_5">
     <g id="line2d_14">
      <path d="M 53.675938 203.565563 
L 413.709687 203.565563 
" clip-path="url(#p3b4cef9d12)" style="fill: none; stroke: #cccccc; stroke-linecap: round"/>
     </g>
     <g id="text_15">
      <!-- 0.0 -->
      <g style="fill: #262626" transform="translate(28.885938 207.50236) scale(0.11 -0.11)">
       <use xlink:href="#ArialMT-30"/>
       <use xlink:href="#ArialMT-2e" transform="translate(55.615234 0)"/>
       <use xlink:href="#ArialMT-30" transform="translate(83.398438 0)"/>
      </g>
     </g>
    </g>
    <g id="ytick_6">
     <g id="line2d_15">
      <path d="M 53.675938 160.572354 
L 413.709687 160.572354 
" clip-path="url(#p3b4cef9d12)" style="fill: none; stroke: #cccccc; stroke-linecap: round"/>
     </g>
     <g id="text_16">
      <!-- 0.5 -->
      <g style="fill: #262626" transform="translate(28.885938 164.509151) scale(0.11 -0.11)">
       <use xlink:href="#ArialMT-30"/>
       <use xlink:href="#ArialMT-2e" transform="translate(55.615234 0)"/>
       <use xlink:href="#ArialMT-35" transform="translate(83.398438 0)"/>
      </g>
     </g>
    </g>
    <g id="ytick_7">
     <g id="line2d_16">
      <path d="M 53.675938 117.579145 
L 413.709687 117.579145 
" clip-path="url(#p3b4cef9d12)" style="fill: none; stroke: #cccccc; stroke-linecap: round"/>
     </g>
     <g id="text_17">
      <!-- 1.0 -->
      <g style="fill: #262626" transform="translate(28.885938 121.515942) scale(0.11 -0.11)">
       <use xlink:href="#ArialMT-31"/>
       <use xlink:href="#ArialMT-2e" transform="translate(55.615234 0)"/>
       <use xlink:href="#ArialMT-30" transform="translate(83.398438 0)"/>
      </g>
     </g>
    </g>
    <g id="ytick_8">
     <g id="line2d_17">
      <path d="M 53.675938 74.585937 
L 413.709687 74.585937 
" clip-path="url(#p3b4cef9d12)" style="fill: none; stroke: #cccccc; stroke-linecap: round"/>
     </g>
     <g id="text_18">
      <!-- 1.5 -->
      <g style="fill: #262626" transform="translate(28.885938 78.522734) scale(0.11 -0.11)">
       <use xlink:href="#ArialMT-31"/>
       <use xlink:href="#ArialMT-2e" transform="translate(55.615234 0)"/>
       <use xlink:href="#ArialMT-35" transform="translate(83.398438 0)"/>
      </g>
     </g>
    </g>
    <g id="ytick_9">
     <g id="line2d_18">
      <path d="M 53.675938 31.592728 
L 413.709687 31.592728 
" clip-path="url(#p3b4cef9d12)" style="fill: none; stroke: #cccccc; stroke-linecap: round"/>
     </g>
     <g id="text_19">
      <!-- 2.0 -->
      <g style="fill: #262626" transform="translate(28.885938 35.529525) scale(0.11 -0.11)">
       <use xlink:href="#ArialMT-32"/>
       <use xlink:href="#ArialMT-2e" transform="translate(55.615234 0)"/>
       <use xlink:href="#ArialMT-30" transform="translate(83.398438 0)"/>
      </g>
     </g>
    </g>
    <g id="text_20">
     <!-- Prediction (ŷ) -->
     <g style="fill: #262626" transform="translate(15.935625 235.633125) rotate(-90) scale(0.12 -0.12)">
      <defs>
       <path id="ArialMT-50" d="M 494 0 
L 494 4581 
L 2222 4581 
Q 2678 4581 2919 4538 
Q 3256 4481 3484 4323 
Q 3713 4166 3852 3881 
Q 3991 3597 3991 3256 
Q 3991 2672 3619 2267 
Q 3247 1863 2275 1863 
L 1100 1863 
L 1100 0 
L 494 0 
z
M 1100 2403 
L 2284 2403 
Q 2872 2403 3119 2622 
Q 3366 2841 3366 3238 
Q 3366 3525 3220 3729 
Q 3075 3934 2838 4000 
Q 2684 4041 2272 4041 
L 1100 4041 
L 1100 2403 
z
" transform="scale(0.015625)"/>
       <path id="ArialMT-72" d="M 416 0 
L 416 3319 
L 922 3319 
L 922 2816 
Q 1116 3169 1280 3281 
Q 1444 3394 1641 3394 
Q 1925 3394 2219 3213 
L 2025 2691 
Q 1819 2813 1613 2813 
Q 1428 2813 1281 2702 
Q 1134 2591 1072 2394 
Q 978 2094 978 1738 
L 978 0 
L 416 0 
z
" transform="scale(0.015625)"/>
       <path id="ArialMT-65" d="M 2694 1069 
L 3275 997 
Q 3138 488 2766 206 
Q 2394 -75 1816 -75 
Q 1088 -75 661 373 
Q 234 822 234 1631 
Q 234 2469 665 2931 
Q 1097 3394 1784 3394 
Q 2450 3394 2872 2941 
Q 3294 2488 3294 1666 
Q 3294 1616 3291 1516 
L 816 1516 
Q 847 969 1125 678 
Q 1403 388 1819 388 
Q 2128 388 2347 550 
Q 2566 713 2694 1069 
z
M 847 1978 
L 2700 1978 
Q 2663 2397 2488 2606 
Q 2219 2931 1791 2931 
Q 1403 2931 1139 2672 
Q 875 2413 847 1978 
z
" transform="scale(0.015625)"/>
       <path id="ArialMT-64" d="M 2575 0 
L 2575 419 
Q 2259 -75 1647 -75 
Q 1250 -75 917 144 
Q 584 363 401 755 
Q 219 1147 219 1656 
Q 219 2153 384 2558 
Q 550 2963 881 3178 
Q 1213 3394 1622 3394 
Q 1922 3394 2156 3267 
Q 2391 3141 2538 2938 
L 2538 4581 
L 3097 4581 
L 3097 0 
L 2575 0 
z
M 797 1656 
Q 797 1019 1065 703 
Q 1334 388 1700 388 
Q 2069 388 2326 689 
Q 2584 991 2584 1609 
Q 2584 2291 2321 2609 
Q 2059 2928 1675 2928 
Q 1300 2928 1048 2622 
Q 797 2316 797 1656 
z
" transform="scale(0.015625)"/>
       <path id="ArialMT-69" d="M 425 3934 
L 425 4581 
L 988 4581 
L 988 3934 
L 425 3934 
z
M 425 0 
L 425 3319 
L 988 3319 
L 988 0 
L 425 0 
z
" transform="scale(0.015625)"/>
       <path id="ArialMT-6f" d="M 213 1659 
Q 213 2581 725 3025 
Q 1153 3394 1769 3394 
Q 2453 3394 2887 2945 
Q 3322 2497 3322 1706 
Q 3322 1066 3130 698 
Q 2938 331 2570 128 
Q 2203 -75 1769 -75 
Q 1072 -75 642 372 
Q 213 819 213 1659 
z
M 791 1659 
Q 791 1022 1069 705 
Q 1347 388 1769 388 
Q 2188 388 2466 706 
Q 2744 1025 2744 1678 
Q 2744 2294 2464 2611 
Q 2184 2928 1769 2928 
Q 1347 2928 1069 2612 
Q 791 2297 791 1659 
z
" transform="scale(0.015625)"/>
       <path id="ArialMT-6e" d="M 422 0 
L 422 3319 
L 928 3319 
L 928 2847 
Q 1294 3394 1984 3394 
Q 2284 3394 2536 3286 
Q 2788 3178 2913 3003 
Q 3038 2828 3088 2588 
Q 3119 2431 3119 2041 
L 3119 0 
L 2556 0 
L 2556 2019 
Q 2556 2363 2490 2533 
Q 2425 2703 2258 2804 
Q 2091 2906 1866 2906 
Q 1506 2906 1245 2678 
Q 984 2450 984 1813 
L 984 0 
L 422 0 
z
" transform="scale(0.015625)"/>
       <path id="ArialMT-177" d="M 397 -1278 
L 334 -750 
Q 519 -800 656 -800 
Q 844 -800 956 -737 
Q 1069 -675 1141 -563 
Q 1194 -478 1313 -144 
Q 1328 -97 1363 -6 
L 103 3319 
L 709 3319 
L 1400 1397 
Q 1534 1031 1641 628 
Q 1738 1016 1872 1384 
L 2581 3319 
L 3144 3319 
L 1881 -56 
Q 1678 -603 1566 -809 
Q 1416 -1088 1222 -1217 
Q 1028 -1347 759 -1347 
Q 597 -1347 397 -1278 
z
M 1747 4263 
L 1394 3731 
L 750 3731 
L 1425 4606 
L 2025 4606 
L 2728 3731 
L 2091 3731 
L 1747 4263 
z
" transform="scale(0.015625)"/>
      </defs>
      <use xlink:href="#ArialMT-50"/>
      <use xlink:href="#ArialMT-72" transform="translate(66.699219 0)"/>
      <use xlink:href="#ArialMT-65" transform="translate(100 0)"/>
      <use xlink:href="#ArialMT-64" transform="translate(155.615234 0)"/>
      <use xlink:href="#ArialMT-69" transform="translate(211.230469 0)"/>
      <use xlink:href="#ArialMT-63" transform="translate(233.447266 0)"/>
      <use xlink:href="#ArialMT-74" transform="translate(283.447266 0)"/>
      <use xlink:href="#ArialMT-69" transform="translate(311.230469 0)"/>
      <use xlink:href="#ArialMT-6f" transform="translate(333.447266 0)"/>
      <use xlink:href="#ArialMT-6e" transform="translate(389.0625 0)"/>
      <use xlink:href="#ArialMT-20" transform="translate(444.677734 0)"/>
      <use xlink:href="#ArialMT-28" transform="translate(472.460938 0)"/>
      <use xlink:href="#ArialMT-177" transform="translate(505.761719 0)"/>
      <use xlink:href="#ArialMT-29" transform="translate(555.761719 0)"/>
     </g>
    </g>
   </g>
   <g id="PathCollection_1">
    <defs>
     <path id="m7a3466677d" d="M 0 2.5 
C 0.663008 2.5 1.29895 2.236584 1.767767 1.767767 
C 2.236584 1.29895 2.5 0.663008 2.5 0 
C 2.5 -0.663008 2.236584 -1.29895 1.767767 -1.767767 
C 1.29895 -2.236584 0.663008 -2.5 0 -2.5 
C -0.663008 -2.5 -1.29895 -2.236584 -1.767767 -1.767767 
C -2.236584 -1.29895 -2.5 -0.663008 -2.5 0 
C -2.5 0.663008 -2.236584 1.29895 -1.767767 1.767767 
C -1.29895 2.236584 -0.663008 2.5 0 2.5 
z
" style="stroke: #ff0000; stroke-opacity: 0.7"/>
    </defs>
    <g clip-path="url(#p3b4cef9d12)">
     <use xlink:href="#m7a3466677d" x="331.141725" y="117.6568" style="fill: #ff0000; fill-opacity: 0.7; stroke: #ff0000; stroke-opacity: 0.7"/>
     <use xlink:href="#m7a3466677d" x="190.276469" y="244.869556" style="fill: #ff0000; fill-opacity: 0.7; stroke: #ff0000; stroke-opacity: 0.7"/>
     <use xlink:href="#m7a3466677d" x="347.916688" y="88.635077" style="fill: #ff0000; fill-opacity: 0.7; stroke: #ff0000; stroke-opacity: 0.7"/>
     <use xlink:href="#m7a3466677d" x="379.44872" y="59.814322" style="fill: #ff0000; fill-opacity: 0.7; stroke: #ff0000; stroke-opacity: 0.7"/>
     <use xlink:href="#m7a3466677d" x="294.062726" y="147.500622" style="fill: #ff0000; fill-opacity: 0.7; stroke: #ff0000; stroke-opacity: 0.7"/>
     <use xlink:href="#m7a3466677d" x="269.811437" y="165.093" style="fill: #ff0000; fill-opacity: 0.7; stroke: #ff0000; stroke-opacity: 0.7"/>
     <use xlink:href="#m7a3466677d" x="364.910445" y="71.718513" style="fill: #ff0000; fill-opacity: 0.7; stroke: #ff0000; stroke-opacity: 0.7"/>
     <use xlink:href="#m7a3466677d" x="334.161315" y="115.46897" style="fill: #ff0000; fill-opacity: 0.7; stroke: #ff0000; stroke-opacity: 0.7"/>
     <use xlink:href="#m7a3466677d" x="293.602317" y="141.536354" style="fill: #ff0000; fill-opacity: 0.7; stroke: #ff0000; stroke-opacity: 0.7"/>
     <use xlink:href="#m7a3466677d" x="347.253565" y="95.132959" style="fill: #ff0000; fill-opacity: 0.7; stroke: #ff0000; stroke-opacity: 0.7"/>
     <use xlink:href="#m7a3466677d" x="287.179985" y="144.333974" style="fill: #ff0000; fill-opacity: 0.7; stroke: #ff0000; stroke-opacity: 0.7"/>
     <use xlink:href="#m7a3466677d" x="245.702183" y="196.775732" style="fill: #ff0000; fill-opacity: 0.7; stroke: #ff0000; stroke-opacity: 0.7"/>
     <use xlink:href="#m7a3466677d" x="94.252348" y="336.504176" style="fill: #ff0000; fill-opacity: 0.7; stroke: #ff0000; stroke-opacity: 0.7"/>
     <use xlink:href="#m7a3466677d" x="377.366274" y="54.797917" style="fill: #ff0000; fill-opacity: 0.7; stroke: #ff0000; stroke-opacity: 0.7"/>
     <use xlink:href="#m7a3466677d" x="202.731482" y="229.698006" style="fill: #ff0000; fill-opacity: 0.7; stroke: #ff0000; stroke-opacity: 0.7"/>
     <use xlink:href="#m7a3466677d" x="86.243711" y="348.620255" style="fill: #ff0000; fill-opacity: 0.7; stroke: #ff0000; stroke-opacity: 0.7"/>
     <use xlink:href="#m7a3466677d" x="171.831517" y="258.462091" style="fill: #ff0000; fill-opacity: 0.7; stroke: #ff0000; stroke-opacity: 0.7"/>
     <use xlink:href="#m7a3466677d" x="141.829351" y="294.977156" style="fill: #ff0000; fill-opacity: 0.7; stroke: #ff0000; stroke-opacity: 0.7"/>
     <use xlink:href="#m7a3466677d" x="280.682724" y="148.217671" style="fill: #ff0000; fill-opacity: 0.7; stroke: #ff0000; stroke-opacity: 0.7"/>
     <use xlink:href="#m7a3466677d" x="139.801581" y="295.769202" style="fill: #ff0000; fill-opacity: 0.7; stroke: #ff0000; stroke-opacity: 0.7"/>
     <use xlink:href="#m7a3466677d" x="283.53953" y="137.584892" style="fill: #ff0000; fill-opacity: 0.7; stroke: #ff0000; stroke-opacity: 0.7"/>
     <use xlink:href="#m7a3466677d" x="183.771415" y="244.722336" style="fill: #ff0000; fill-opacity: 0.7; stroke: #ff0000; stroke-opacity: 0.7"/>
     <use xlink:href="#m7a3466677d" x="253.202479" y="179.442552" style="fill: #ff0000; fill-opacity: 0.7; stroke: #ff0000; stroke-opacity: 0.7"/>
     <use xlink:href="#m7a3466677d" x="326.472619" y="100.474194" style="fill: #ff0000; fill-opacity: 0.7; stroke: #ff0000; stroke-opacity: 0.7"/>
     <use xlink:href="#m7a3466677d" x="170.76933" y="258.980679" style="fill: #ff0000; fill-opacity: 0.7; stroke: #ff0000; stroke-opacity: 0.7"/>
     <use xlink:href="#m7a3466677d" x="158.280304" y="280.643928" style="fill: #ff0000; fill-opacity: 0.7; stroke: #ff0000; stroke-opacity: 0.7"/>
     <use xlink:href="#m7a3466677d" x="182.693694" y="253.163101" style="fill: #ff0000; fill-opacity: 0.7; stroke: #ff0000; stroke-opacity: 0.7"/>
     <use xlink:href="#m7a3466677d" x="176.081778" y="268.564863" style="fill: #ff0000; fill-opacity: 0.7; stroke: #ff0000; stroke-opacity: 0.7"/>
     <use xlink:href="#m7a3466677d" x="85.395988" y="345.824871" style="fill: #ff0000; fill-opacity: 0.7; stroke: #ff0000; stroke-opacity: 0.7"/>
     <use xlink:href="#m7a3466677d" x="188.563718" y="243.601137" style="fill: #ff0000; fill-opacity: 0.7; stroke: #ff0000; stroke-opacity: 0.7"/>
     <use xlink:href="#m7a3466677d" x="112.539881" y="321.401031" style="fill: #ff0000; fill-opacity: 0.7; stroke: #ff0000; stroke-opacity: 0.7"/>
     <use xlink:href="#m7a3466677d" x="328.690183" y="101.854921" style="fill: #ff0000; fill-opacity: 0.7; stroke: #ff0000; stroke-opacity: 0.7"/>
     <use xlink:href="#m7a3466677d" x="286.408119" y="144.431297" style="fill: #ff0000; fill-opacity: 0.7; stroke: #ff0000; stroke-opacity: 0.7"/>
     <use xlink:href="#m7a3466677d" x="136.147776" y="289.502137" style="fill: #ff0000; fill-opacity: 0.7; stroke: #ff0000; stroke-opacity: 0.7"/>
     <use xlink:href="#m7a3466677d" x="177.49021" y="243.243627" style="fill: #ff0000; fill-opacity: 0.7; stroke: #ff0000; stroke-opacity: 0.7"/>
     <use xlink:href="#m7a3466677d" x="287.742518" y="151.595613" style="fill: #ff0000; fill-opacity: 0.7; stroke: #ff0000; stroke-opacity: 0.7"/>
     <use xlink:href="#m7a3466677d" x="183.387599" y="249.092989" style="fill: #ff0000; fill-opacity: 0.7; stroke: #ff0000; stroke-opacity: 0.7"/>
     <use xlink:href="#m7a3466677d" x="216.567554" y="219.189171" style="fill: #ff0000; fill-opacity: 0.7; stroke: #ff0000; stroke-opacity: 0.7"/>
     <use xlink:href="#m7a3466677d" x="116.258869" y="309.355916" style="fill: #ff0000; fill-opacity: 0.7; stroke: #ff0000; stroke-opacity: 0.7"/>
     <use xlink:href="#m7a3466677d" x="70.041108" y="360.757633" style="fill: #ff0000; fill-opacity: 0.7; stroke: #ff0000; stroke-opacity: 0.7"/>
     <use xlink:href="#m7a3466677d" x="123.08423" y="312.197105" style="fill: #ff0000; fill-opacity: 0.7; stroke: #ff0000; stroke-opacity: 0.7"/>
     <use xlink:href="#m7a3466677d" x="125.318042" y="310.985875" style="fill: #ff0000; fill-opacity: 0.7; stroke: #ff0000; stroke-opacity: 0.7"/>
     <use xlink:href="#m7a3466677d" x="187.619902" y="236.834378" style="fill: #ff0000; fill-opacity: 0.7; stroke: #ff0000; stroke-opacity: 0.7"/>
     <use xlink:href="#m7a3466677d" x="124.469637" y="306.522079" style="fill: #ff0000; fill-opacity: 0.7; stroke: #ff0000; stroke-opacity: 0.7"/>
     <use xlink:href="#m7a3466677d" x="397.344517" y="47.13019" style="fill: #ff0000; fill-opacity: 0.7; stroke: #ff0000; stroke-opacity: 0.7"/>
     <use xlink:href="#m7a3466677d" x="368.410709" y="54.231094" style="fill: #ff0000; fill-opacity: 0.7; stroke: #ff0000; stroke-opacity: 0.7"/>
     <use xlink:href="#m7a3466677d" x="278.096091" y="149.746269" style="fill: #ff0000; fill-opacity: 0.7; stroke: #ff0000; stroke-opacity: 0.7"/>
     <use xlink:href="#m7a3466677d" x="302.58947" y="135.911063" style="fill: #ff0000; fill-opacity: 0.7; stroke: #ff0000; stroke-opacity: 0.7"/>
     <use xlink:href="#m7a3466677d" x="375.252967" y="63.679368" style="fill: #ff0000; fill-opacity: 0.7; stroke: #ff0000; stroke-opacity: 0.7"/>
     <use xlink:href="#m7a3466677d" x="259.720802" y="170.006299" style="fill: #ff0000; fill-opacity: 0.7; stroke: #ff0000; stroke-opacity: 0.7"/>
     <use xlink:href="#m7a3466677d" x="109.419658" y="316.665312" style="fill: #ff0000; fill-opacity: 0.7; stroke: #ff0000; stroke-opacity: 0.7"/>
     <use xlink:href="#m7a3466677d" x="283.235904" y="150.845943" style="fill: #ff0000; fill-opacity: 0.7; stroke: #ff0000; stroke-opacity: 0.7"/>
     <use xlink:href="#m7a3466677d" x="300.746826" y="130.664902" style="fill: #ff0000; fill-opacity: 0.7; stroke: #ff0000; stroke-opacity: 0.7"/>
     <use xlink:href="#m7a3466677d" x="263.476557" y="169.803421" style="fill: #ff0000; fill-opacity: 0.7; stroke: #ff0000; stroke-opacity: 0.7"/>
     <use xlink:href="#m7a3466677d" x="202.852112" y="230.988454" style="fill: #ff0000; fill-opacity: 0.7; stroke: #ff0000; stroke-opacity: 0.7"/>
     <use xlink:href="#m7a3466677d" x="299.495521" y="131.410895" style="fill: #ff0000; fill-opacity: 0.7; stroke: #ff0000; stroke-opacity: 0.7"/>
     <use xlink:href="#m7a3466677d" x="85.021868" y="352.018576" style="fill: #ff0000; fill-opacity: 0.7; stroke: #ff0000; stroke-opacity: 0.7"/>
     <use xlink:href="#m7a3466677d" x="135.101846" y="300.867157" style="fill: #ff0000; fill-opacity: 0.7; stroke: #ff0000; stroke-opacity: 0.7"/>
     <use xlink:href="#m7a3466677d" x="271.286524" y="164.735741" style="fill: #ff0000; fill-opacity: 0.7; stroke: #ff0000; stroke-opacity: 0.7"/>
     <use xlink:href="#m7a3466677d" x="94.166123" y="335.615833" style="fill: #ff0000; fill-opacity: 0.7; stroke: #ff0000; stroke-opacity: 0.7"/>
     <use xlink:href="#m7a3466677d" x="363.120043" y="75.259649" style="fill: #ff0000; fill-opacity: 0.7; stroke: #ff0000; stroke-opacity: 0.7"/>
     <use xlink:href="#m7a3466677d" x="149.719438" y="288.030429" style="fill: #ff0000; fill-opacity: 0.7; stroke: #ff0000; stroke-opacity: 0.7"/>
     <use xlink:href="#m7a3466677d" x="130.589682" y="307.614932" style="fill: #ff0000; fill-opacity: 0.7; stroke: #ff0000; stroke-opacity: 0.7"/>
     <use xlink:href="#m7a3466677d" x="198.23977" y="236.286576" style="fill: #ff0000; fill-opacity: 0.7; stroke: #ff0000; stroke-opacity: 0.7"/>
     <use xlink:href="#m7a3466677d" x="228.53685" y="207.144217" style="fill: #ff0000; fill-opacity: 0.7; stroke: #ff0000; stroke-opacity: 0.7"/>
     <use xlink:href="#m7a3466677d" x="209.956766" y="221.814767" style="fill: #ff0000; fill-opacity: 0.7; stroke: #ff0000; stroke-opacity: 0.7"/>
     <use xlink:href="#m7a3466677d" x="181.321935" y="249.323347" style="fill: #ff0000; fill-opacity: 0.7; stroke: #ff0000; stroke-opacity: 0.7"/>
     <use xlink:href="#m7a3466677d" x="271.70414" y="157.32586" style="fill: #ff0000; fill-opacity: 0.7; stroke: #ff0000; stroke-opacity: 0.7"/>
     <use xlink:href="#m7a3466677d" x="348.502154" y="82.384776" style="fill: #ff0000; fill-opacity: 0.7; stroke: #ff0000; stroke-opacity: 0.7"/>
     <use xlink:href="#m7a3466677d" x="277.482333" y="156.900356" style="fill: #ff0000; fill-opacity: 0.7; stroke: #ff0000; stroke-opacity: 0.7"/>
     <use xlink:href="#m7a3466677d" x="185.571498" y="249.435505" style="fill: #ff0000; fill-opacity: 0.7; stroke: #ff0000; stroke-opacity: 0.7"/>
     <use xlink:href="#m7a3466677d" x="322.470891" y="118.877253" style="fill: #ff0000; fill-opacity: 0.7; stroke: #ff0000; stroke-opacity: 0.7"/>
     <use xlink:href="#m7a3466677d" x="110.455197" y="328.981336" style="fill: #ff0000; fill-opacity: 0.7; stroke: #ff0000; stroke-opacity: 0.7"/>
     <use xlink:href="#m7a3466677d" x="218.131603" y="217.65021" style="fill: #ff0000; fill-opacity: 0.7; stroke: #ff0000; stroke-opacity: 0.7"/>
     <use xlink:href="#m7a3466677d" x="256.084622" y="184.191281" style="fill: #ff0000; fill-opacity: 0.7; stroke: #ff0000; stroke-opacity: 0.7"/>
     <use xlink:href="#m7a3466677d" x="273.131258" y="156.721409" style="fill: #ff0000; fill-opacity: 0.7; stroke: #ff0000; stroke-opacity: 0.7"/>
     <use xlink:href="#m7a3466677d" x="209.998403" y="233.01012" style="fill: #ff0000; fill-opacity: 0.7; stroke: #ff0000; stroke-opacity: 0.7"/>
     <use xlink:href="#m7a3466677d" x="84.22591" y="337.244458" style="fill: #ff0000; fill-opacity: 0.7; stroke: #ff0000; stroke-opacity: 0.7"/>
     <use xlink:href="#m7a3466677d" x="205.207148" y="230.139034" style="fill: #ff0000; fill-opacity: 0.7; stroke: #ff0000; stroke-opacity: 0.7"/>
     <use xlink:href="#m7a3466677d" x="321.32564" y="110.23588" style="fill: #ff0000; fill-opacity: 0.7; stroke: #ff0000; stroke-opacity: 0.7"/>
     <use xlink:href="#m7a3466677d" x="207.932229" y="234.727055" style="fill: #ff0000; fill-opacity: 0.7; stroke: #ff0000; stroke-opacity: 0.7"/>
     <use xlink:href="#m7a3466677d" x="156.593471" y="267.66578" style="fill: #ff0000; fill-opacity: 0.7; stroke: #ff0000; stroke-opacity: 0.7"/>
     <use xlink:href="#m7a3466677d" x="204.137455" y="225.895713" style="fill: #ff0000; fill-opacity: 0.7; stroke: #ff0000; stroke-opacity: 0.7"/>
     <use xlink:href="#m7a3466677d" x="85.122012" y="337.158635" style="fill: #ff0000; fill-opacity: 0.7; stroke: #ff0000; stroke-opacity: 0.7"/>
     <use xlink:href="#m7a3466677d" x="70.783429" y="341.188458" style="fill: #ff0000; fill-opacity: 0.7; stroke: #ff0000; stroke-opacity: 0.7"/>
     <use xlink:href="#m7a3466677d" x="150.237357" y="288.89838" style="fill: #ff0000; fill-opacity: 0.7; stroke: #ff0000; stroke-opacity: 0.7"/>
     <use xlink:href="#m7a3466677d" x="353.274941" y="95.962538" style="fill: #ff0000; fill-opacity: 0.7; stroke: #ff0000; stroke-opacity: 0.7"/>
     <use xlink:href="#m7a3466677d" x="343.081341" y="88.035451" style="fill: #ff0000; fill-opacity: 0.7; stroke: #ff0000; stroke-opacity: 0.7"/>
     <use xlink:href="#m7a3466677d" x="210.245804" y="223.418355" style="fill: #ff0000; fill-opacity: 0.7; stroke: #ff0000; stroke-opacity: 0.7"/>
     <use xlink:href="#m7a3466677d" x="96.693803" y="331.467108" style="fill: #ff0000; fill-opacity: 0.7; stroke: #ff0000; stroke-opacity: 0.7"/>
     <use xlink:href="#m7a3466677d" x="342.896778" y="99.160158" style="fill: #ff0000; fill-opacity: 0.7; stroke: #ff0000; stroke-opacity: 0.7"/>
     <use xlink:href="#m7a3466677d" x="289.68872" y="137.906407" style="fill: #ff0000; fill-opacity: 0.7; stroke: #ff0000; stroke-opacity: 0.7"/>
     <use xlink:href="#m7a3466677d" x="145.326195" y="288.331971" style="fill: #ff0000; fill-opacity: 0.7; stroke: #ff0000; stroke-opacity: 0.7"/>
     <use xlink:href="#m7a3466677d" x="295.571234" y="139.655737" style="fill: #ff0000; fill-opacity: 0.7; stroke: #ff0000; stroke-opacity: 0.7"/>
     <use xlink:href="#m7a3466677d" x="263.799516" y="178.526883" style="fill: #ff0000; fill-opacity: 0.7; stroke: #ff0000; stroke-opacity: 0.7"/>
     <use xlink:href="#m7a3466677d" x="389.204158" y="63.125143" style="fill: #ff0000; fill-opacity: 0.7; stroke: #ff0000; stroke-opacity: 0.7"/>
     <use xlink:href="#m7a3466677d" x="282.52567" y="155.168202" style="fill: #ff0000; fill-opacity: 0.7; stroke: #ff0000; stroke-opacity: 0.7"/>
     <use xlink:href="#m7a3466677d" x="330.20025" y="107.299005" style="fill: #ff0000; fill-opacity: 0.7; stroke: #ff0000; stroke-opacity: 0.7"/>
     <use xlink:href="#m7a3466677d" x="318.072435" y="116.895278" style="fill: #ff0000; fill-opacity: 0.7; stroke: #ff0000; stroke-opacity: 0.7"/>
     <use xlink:href="#m7a3466677d" x="228.686923" y="201.02804" style="fill: #ff0000; fill-opacity: 0.7; stroke: #ff0000; stroke-opacity: 0.7"/>
     <use xlink:href="#m7a3466677d" x="336.768157" y="90.763473" style="fill: #ff0000; fill-opacity: 0.7; stroke: #ff0000; stroke-opacity: 0.7"/>
     <use xlink:href="#m7a3466677d" x="320.940999" y="115.612877" style="fill: #ff0000; fill-opacity: 0.7; stroke: #ff0000; stroke-opacity: 0.7"/>
     <use xlink:href="#m7a3466677d" x="109.932559" y="318.955758" style="fill: #ff0000; fill-opacity: 0.7; stroke: #ff0000; stroke-opacity: 0.7"/>
     <use xlink:href="#m7a3466677d" x="228.608633" y="204.726514" style="fill: #ff0000; fill-opacity: 0.7; stroke: #ff0000; stroke-opacity: 0.7"/>
     <use xlink:href="#m7a3466677d" x="181.801527" y="262.315697" style="fill: #ff0000; fill-opacity: 0.7; stroke: #ff0000; stroke-opacity: 0.7"/>
     <use xlink:href="#m7a3466677d" x="335.568694" y="98.506206" style="fill: #ff0000; fill-opacity: 0.7; stroke: #ff0000; stroke-opacity: 0.7"/>
     <use xlink:href="#m7a3466677d" x="213.068967" y="218.78221" style="fill: #ff0000; fill-opacity: 0.7; stroke: #ff0000; stroke-opacity: 0.7"/>
     <use xlink:href="#m7a3466677d" x="87.775432" y="341.300722" style="fill: #ff0000; fill-opacity: 0.7; stroke: #ff0000; stroke-opacity: 0.7"/>
     <use xlink:href="#m7a3466677d" x="117.847801" y="316.105239" style="fill: #ff0000; fill-opacity: 0.7; stroke: #ff0000; stroke-opacity: 0.7"/>
     <use xlink:href="#m7a3466677d" x="378.590145" y="62.038807" style="fill: #ff0000; fill-opacity: 0.7; stroke: #ff0000; stroke-opacity: 0.7"/>
     <use xlink:href="#m7a3466677d" x="305.544525" y="125.801141" style="fill: #ff0000; fill-opacity: 0.7; stroke: #ff0000; stroke-opacity: 0.7"/>
     <use xlink:href="#m7a3466677d" x="163.752451" y="275.513451" style="fill: #ff0000; fill-opacity: 0.7; stroke: #ff0000; stroke-opacity: 0.7"/>
     <use xlink:href="#m7a3466677d" x="342.346898" y="93.651456" style="fill: #ff0000; fill-opacity: 0.7; stroke: #ff0000; stroke-opacity: 0.7"/>
     <use xlink:href="#m7a3466677d" x="203.833648" y="227.123316" style="fill: #ff0000; fill-opacity: 0.7; stroke: #ff0000; stroke-opacity: 0.7"/>
     <use xlink:href="#m7a3466677d" x="271.895648" y="162.992102" style="fill: #ff0000; fill-opacity: 0.7; stroke: #ff0000; stroke-opacity: 0.7"/>
     <use xlink:href="#m7a3466677d" x="335.839483" y="95.938204" style="fill: #ff0000; fill-opacity: 0.7; stroke: #ff0000; stroke-opacity: 0.7"/>
     <use xlink:href="#m7a3466677d" x="120.970883" y="314.80994" style="fill: #ff0000; fill-opacity: 0.7; stroke: #ff0000; stroke-opacity: 0.7"/>
     <use xlink:href="#m7a3466677d" x="324.74141" y="109.11963" style="fill: #ff0000; fill-opacity: 0.7; stroke: #ff0000; stroke-opacity: 0.7"/>
     <use xlink:href="#m7a3466677d" x="106.230129" y="334.330946" style="fill: #ff0000; fill-opacity: 0.7; stroke: #ff0000; stroke-opacity: 0.7"/>
     <use xlink:href="#m7a3466677d" x="270.081987" y="165.541369" style="fill: #ff0000; fill-opacity: 0.7; stroke: #ff0000; stroke-opacity: 0.7"/>
     <use xlink:href="#m7a3466677d" x="104.391245" y="329.979311" style="fill: #ff0000; fill-opacity: 0.7; stroke: #ff0000; stroke-opacity: 0.7"/>
     <use xlink:href="#m7a3466677d" x="185.754416" y="250.057851" style="fill: #ff0000; fill-opacity: 0.7; stroke: #ff0000; stroke-opacity: 0.7"/>
     <use xlink:href="#m7a3466677d" x="327.109225" y="110.11555" style="fill: #ff0000; fill-opacity: 0.7; stroke: #ff0000; stroke-opacity: 0.7"/>
     <use xlink:href="#m7a3466677d" x="94.933165" y="332.62998" style="fill: #ff0000; fill-opacity: 0.7; stroke: #ff0000; stroke-opacity: 0.7"/>
     <use xlink:href="#m7a3466677d" x="136.085297" y="308.169329" style="fill: #ff0000; fill-opacity: 0.7; stroke: #ff0000; stroke-opacity: 0.7"/>
     <use xlink:href="#m7a3466677d" x="132.301912" y="303.045837" style="fill: #ff0000; fill-opacity: 0.7; stroke: #ff0000; stroke-opacity: 0.7"/>
     <use xlink:href="#m7a3466677d" x="208.904514" y="230.904981" style="fill: #ff0000; fill-opacity: 0.7; stroke: #ff0000; stroke-opacity: 0.7"/>
     <use xlink:href="#m7a3466677d" x="313.015342" y="115.213994" style="fill: #ff0000; fill-opacity: 0.7; stroke: #ff0000; stroke-opacity: 0.7"/>
     <use xlink:href="#m7a3466677d" x="349.280599" y="86.761381" style="fill: #ff0000; fill-opacity: 0.7; stroke: #ff0000; stroke-opacity: 0.7"/>
     <use xlink:href="#m7a3466677d" x="217.948196" y="207.152223" style="fill: #ff0000; fill-opacity: 0.7; stroke: #ff0000; stroke-opacity: 0.7"/>
     <use xlink:href="#m7a3466677d" x="288.977288" y="133.411518" style="fill: #ff0000; fill-opacity: 0.7; stroke: #ff0000; stroke-opacity: 0.7"/>
     <use xlink:href="#m7a3466677d" x="256.507095" y="179.325816" style="fill: #ff0000; fill-opacity: 0.7; stroke: #ff0000; stroke-opacity: 0.7"/>
     <use xlink:href="#m7a3466677d" x="233.639653" y="206.921091" style="fill: #ff0000; fill-opacity: 0.7; stroke: #ff0000; stroke-opacity: 0.7"/>
     <use xlink:href="#m7a3466677d" x="262.000045" y="168.586744" style="fill: #ff0000; fill-opacity: 0.7; stroke: #ff0000; stroke-opacity: 0.7"/>
     <use xlink:href="#m7a3466677d" x="252.32841" y="163.100243" style="fill: #ff0000; fill-opacity: 0.7; stroke: #ff0000; stroke-opacity: 0.7"/>
     <use xlink:href="#m7a3466677d" x="319.31589" y="122.577785" style="fill: #ff0000; fill-opacity: 0.7; stroke: #ff0000; stroke-opacity: 0.7"/>
     <use xlink:href="#m7a3466677d" x="196.924574" y="239.865266" style="fill: #ff0000; fill-opacity: 0.7; stroke: #ff0000; stroke-opacity: 0.7"/>
     <use xlink:href="#m7a3466677d" x="235.18232" y="196.634669" style="fill: #ff0000; fill-opacity: 0.7; stroke: #ff0000; stroke-opacity: 0.7"/>
     <use xlink:href="#m7a3466677d" x="244.904808" y="178.659554" style="fill: #ff0000; fill-opacity: 0.7; stroke: #ff0000; stroke-opacity: 0.7"/>
     <use xlink:href="#m7a3466677d" x="104.913189" y="329.896601" style="fill: #ff0000; fill-opacity: 0.7; stroke: #ff0000; stroke-opacity: 0.7"/>
     <use xlink:href="#m7a3466677d" x="187.103139" y="254.717597" style="fill: #ff0000; fill-opacity: 0.7; stroke: #ff0000; stroke-opacity: 0.7"/>
     <use xlink:href="#m7a3466677d" x="317.402729" y="119.741351" style="fill: #ff0000; fill-opacity: 0.7; stroke: #ff0000; stroke-opacity: 0.7"/>
     <use xlink:href="#m7a3466677d" x="135.386317" y="296.344581" style="fill: #ff0000; fill-opacity: 0.7; stroke: #ff0000; stroke-opacity: 0.7"/>
     <use xlink:href="#m7a3466677d" x="278.675461" y="162.285467" style="fill: #ff0000; fill-opacity: 0.7; stroke: #ff0000; stroke-opacity: 0.7"/>
     <use xlink:href="#m7a3466677d" x="329.816493" y="115.104396" style="fill: #ff0000; fill-opacity: 0.7; stroke: #ff0000; stroke-opacity: 0.7"/>
     <use xlink:href="#m7a3466677d" x="137.994384" y="286.89273" style="fill: #ff0000; fill-opacity: 0.7; stroke: #ff0000; stroke-opacity: 0.7"/>
     <use xlink:href="#m7a3466677d" x="339.83827" y="97.290203" style="fill: #ff0000; fill-opacity: 0.7; stroke: #ff0000; stroke-opacity: 0.7"/>
     <use xlink:href="#m7a3466677d" x="147.460255" y="295.649733" style="fill: #ff0000; fill-opacity: 0.7; stroke: #ff0000; stroke-opacity: 0.7"/>
     <use xlink:href="#m7a3466677d" x="260.757841" y="178.617249" style="fill: #ff0000; fill-opacity: 0.7; stroke: #ff0000; stroke-opacity: 0.7"/>
     <use xlink:href="#m7a3466677d" x="336.146342" y="102.886294" style="fill: #ff0000; fill-opacity: 0.7; stroke: #ff0000; stroke-opacity: 0.7"/>
     <use xlink:href="#m7a3466677d" x="220.997914" y="208.203749" style="fill: #ff0000; fill-opacity: 0.7; stroke: #ff0000; stroke-opacity: 0.7"/>
     <use xlink:href="#m7a3466677d" x="292.032181" y="139.447177" style="fill: #ff0000; fill-opacity: 0.7; stroke: #ff0000; stroke-opacity: 0.7"/>
     <use xlink:href="#m7a3466677d" x="341.835457" y="85.820398" style="fill: #ff0000; fill-opacity: 0.7; stroke: #ff0000; stroke-opacity: 0.7"/>
     <use xlink:href="#m7a3466677d" x="331.305045" y="100.197885" style="fill: #ff0000; fill-opacity: 0.7; stroke: #ff0000; stroke-opacity: 0.7"/>
     <use xlink:href="#m7a3466677d" x="377.171027" y="58.753653" style="fill: #ff0000; fill-opacity: 0.7; stroke: #ff0000; stroke-opacity: 0.7"/>
     <use xlink:href="#m7a3466677d" x="260.713179" y="177.468708" style="fill: #ff0000; fill-opacity: 0.7; stroke: #ff0000; stroke-opacity: 0.7"/>
     <use xlink:href="#m7a3466677d" x="112.134798" y="321.561293" style="fill: #ff0000; fill-opacity: 0.7; stroke: #ff0000; stroke-opacity: 0.7"/>
     <use xlink:href="#m7a3466677d" x="236.29506" y="190.319997" style="fill: #ff0000; fill-opacity: 0.7; stroke: #ff0000; stroke-opacity: 0.7"/>
     <use xlink:href="#m7a3466677d" x="360.601836" y="69.630995" style="fill: #ff0000; fill-opacity: 0.7; stroke: #ff0000; stroke-opacity: 0.7"/>
     <use xlink:href="#m7a3466677d" x="280.426199" y="158.855068" style="fill: #ff0000; fill-opacity: 0.7; stroke: #ff0000; stroke-opacity: 0.7"/>
     <use xlink:href="#m7a3466677d" x="101.529029" y="335.762354" style="fill: #ff0000; fill-opacity: 0.7; stroke: #ff0000; stroke-opacity: 0.7"/>
     <use xlink:href="#m7a3466677d" x="320.471834" y="120.631216" style="fill: #ff0000; fill-opacity: 0.7; stroke: #ff0000; stroke-opacity: 0.7"/>
     <use xlink:href="#m7a3466677d" x="297.777174" y="137.385021" style="fill: #ff0000; fill-opacity: 0.7; stroke: #ff0000; stroke-opacity: 0.7"/>
     <use xlink:href="#m7a3466677d" x="249.48077" y="179.179445" style="fill: #ff0000; fill-opacity: 0.7; stroke: #ff0000; stroke-opacity: 0.7"/>
     <use xlink:href="#m7a3466677d" x="371.545123" y="72.381984" style="fill: #ff0000; fill-opacity: 0.7; stroke: #ff0000; stroke-opacity: 0.7"/>
     <use xlink:href="#m7a3466677d" x="355.761452" y="81.060568" style="fill: #ff0000; fill-opacity: 0.7; stroke: #ff0000; stroke-opacity: 0.7"/>
     <use xlink:href="#m7a3466677d" x="329.296297" y="95.909683" style="fill: #ff0000; fill-opacity: 0.7; stroke: #ff0000; stroke-opacity: 0.7"/>
     <use xlink:href="#m7a3466677d" x="85.012833" y="349.478787" style="fill: #ff0000; fill-opacity: 0.7; stroke: #ff0000; stroke-opacity: 0.7"/>
     <use xlink:href="#m7a3466677d" x="242.283042" y="191.323045" style="fill: #ff0000; fill-opacity: 0.7; stroke: #ff0000; stroke-opacity: 0.7"/>
     <use xlink:href="#m7a3466677d" x="319.512761" y="126.77475" style="fill: #ff0000; fill-opacity: 0.7; stroke: #ff0000; stroke-opacity: 0.7"/>
     <use xlink:href="#m7a3466677d" x="243.033416" y="189.371475" style="fill: #ff0000; fill-opacity: 0.7; stroke: #ff0000; stroke-opacity: 0.7"/>
     <use xlink:href="#m7a3466677d" x="104.329904" y="317.546595" style="fill: #ff0000; fill-opacity: 0.7; stroke: #ff0000; stroke-opacity: 0.7"/>
     <use xlink:href="#m7a3466677d" x="197.650041" y="234.383939" style="fill: #ff0000; fill-opacity: 0.7; stroke: #ff0000; stroke-opacity: 0.7"/>
     <use xlink:href="#m7a3466677d" x="178.563911" y="248.889826" style="fill: #ff0000; fill-opacity: 0.7; stroke: #ff0000; stroke-opacity: 0.7"/>
     <use xlink:href="#m7a3466677d" x="200.252494" y="229.909236" style="fill: #ff0000; fill-opacity: 0.7; stroke: #ff0000; stroke-opacity: 0.7"/>
     <use xlink:href="#m7a3466677d" x="190.931333" y="242.115245" style="fill: #ff0000; fill-opacity: 0.7; stroke: #ff0000; stroke-opacity: 0.7"/>
     <use xlink:href="#m7a3466677d" x="230.709408" y="199.368051" style="fill: #ff0000; fill-opacity: 0.7; stroke: #ff0000; stroke-opacity: 0.7"/>
     <use xlink:href="#m7a3466677d" x="378.84687" y="62.29552" style="fill: #ff0000; fill-opacity: 0.7; stroke: #ff0000; stroke-opacity: 0.7"/>
     <use xlink:href="#m7a3466677d" x="249.688574" y="180.040308" style="fill: #ff0000; fill-opacity: 0.7; stroke: #ff0000; stroke-opacity: 0.7"/>
     <use xlink:href="#m7a3466677d" x="199.901196" y="232.962659" style="fill: #ff0000; fill-opacity: 0.7; stroke: #ff0000; stroke-opacity: 0.7"/>
     <use xlink:href="#m7a3466677d" x="371.454313" y="75.584566" style="fill: #ff0000; fill-opacity: 0.7; stroke: #ff0000; stroke-opacity: 0.7"/>
     <use xlink:href="#m7a3466677d" x="277.21483" y="159.009981" style="fill: #ff0000; fill-opacity: 0.7; stroke: #ff0000; stroke-opacity: 0.7"/>
     <use xlink:href="#m7a3466677d" x="135.358625" y="302.773114" style="fill: #ff0000; fill-opacity: 0.7; stroke: #ff0000; stroke-opacity: 0.7"/>
     <use xlink:href="#m7a3466677d" x="164.059334" y="264.311536" style="fill: #ff0000; fill-opacity: 0.7; stroke: #ff0000; stroke-opacity: 0.7"/>
     <use xlink:href="#m7a3466677d" x="206.810895" y="220.294836" style="fill: #ff0000; fill-opacity: 0.7; stroke: #ff0000; stroke-opacity: 0.7"/>
     <use xlink:href="#m7a3466677d" x="189.40341" y="247.291017" style="fill: #ff0000; fill-opacity: 0.7; stroke: #ff0000; stroke-opacity: 0.7"/>
     <use xlink:href="#m7a3466677d" x="138.231551" y="291.937777" style="fill: #ff0000; fill-opacity: 0.7; stroke: #ff0000; stroke-opacity: 0.7"/>
     <use xlink:href="#m7a3466677d" x="228.76701" y="205.236648" style="fill: #ff0000; fill-opacity: 0.7; stroke: #ff0000; stroke-opacity: 0.7"/>
     <use xlink:href="#m7a3466677d" x="214.608746" y="216.479801" style="fill: #ff0000; fill-opacity: 0.7; stroke: #ff0000; stroke-opacity: 0.7"/>
     <use xlink:href="#m7a3466677d" x="130.231098" y="293.610006" style="fill: #ff0000; fill-opacity: 0.7; stroke: #ff0000; stroke-opacity: 0.7"/>
     <use xlink:href="#m7a3466677d" x="193.792284" y="239.236667" style="fill: #ff0000; fill-opacity: 0.7; stroke: #ff0000; stroke-opacity: 0.7"/>
     <use xlink:href="#m7a3466677d" x="193.542718" y="240.882109" style="fill: #ff0000; fill-opacity: 0.7; stroke: #ff0000; stroke-opacity: 0.7"/>
     <use xlink:href="#m7a3466677d" x="354.285301" y="82.119663" style="fill: #ff0000; fill-opacity: 0.7; stroke: #ff0000; stroke-opacity: 0.7"/>
     <use xlink:href="#m7a3466677d" x="337.342875" y="90.892951" style="fill: #ff0000; fill-opacity: 0.7; stroke: #ff0000; stroke-opacity: 0.7"/>
     <use xlink:href="#m7a3466677d" x="106.55567" y="328.420971" style="fill: #ff0000; fill-opacity: 0.7; stroke: #ff0000; stroke-opacity: 0.7"/>
     <use xlink:href="#m7a3466677d" x="304.639692" y="129.737857" style="fill: #ff0000; fill-opacity: 0.7; stroke: #ff0000; stroke-opacity: 0.7"/>
     <use xlink:href="#m7a3466677d" x="81.405647" y="351.851986" style="fill: #ff0000; fill-opacity: 0.7; stroke: #ff0000; stroke-opacity: 0.7"/>
     <use xlink:href="#m7a3466677d" x="353.604651" y="77.311741" style="fill: #ff0000; fill-opacity: 0.7; stroke: #ff0000; stroke-opacity: 0.7"/>
     <use xlink:href="#m7a3466677d" x="169.180007" y="266.188218" style="fill: #ff0000; fill-opacity: 0.7; stroke: #ff0000; stroke-opacity: 0.7"/>
     <use xlink:href="#m7a3466677d" x="248.973066" y="187.423641" style="fill: #ff0000; fill-opacity: 0.7; stroke: #ff0000; stroke-opacity: 0.7"/>
    </g>
   </g>
   <g id="FillBetweenPolyCollection_1">
    <defs>
     <path id="m04255b6f5b" d="M 70.041108 -61.925492 
L 70.041108 -58.248537 
L 73.347203 -61.524094 
L 76.653298 -64.799774 
L 79.959393 -68.069077 
L 83.265488 -71.334824 
L 86.571583 -74.605639 
L 89.877678 -77.882617 
L 93.183773 -81.14717 
L 96.489868 -84.411223 
L 99.795963 -87.684181 
L 103.102058 -90.972734 
L 106.408153 -94.254109 
L 109.714248 -97.525552 
L 113.020343 -100.796996 
L 116.326439 -104.064658 
L 119.632534 -107.324552 
L 122.938629 -110.58463 
L 126.244724 -113.84476 
L 129.550819 -117.105072 
L 132.856914 -120.365357 
L 136.163009 -123.625151 
L 139.469104 -126.892597 
L 142.775199 -130.145467 
L 146.081294 -133.414675 
L 149.387389 -136.667479 
L 152.693484 -139.95117 
L 155.999579 -143.22593 
L 159.305674 -146.501026 
L 162.611769 -149.776122 
L 165.917864 -153.050956 
L 169.223959 -156.300958 
L 172.530054 -159.571907 
L 175.836149 -162.825028 
L 179.142244 -166.083619 
L 182.448339 -169.327177 
L 185.754434 -172.587157 
L 189.060529 -175.839266 
L 192.366624 -179.094777 
L 195.67272 -182.343172 
L 198.978815 -185.596083 
L 202.28491 -188.846868 
L 205.591005 -192.098685 
L 208.8971 -195.350503 
L 212.203195 -198.602574 
L 215.50929 -201.859926 
L 218.815385 -205.119517 
L 222.12148 -208.362845 
L 225.427575 -211.610993 
L 228.73367 -214.852675 
L 232.039765 -218.081632 
L 235.34586 -221.31108 
L 238.651955 -224.539417 
L 241.95805 -227.772891 
L 245.264145 -231.013206 
L 248.57024 -234.241731 
L 251.876335 -237.475677 
L 255.18243 -240.704411 
L 258.488525 -243.931185 
L 261.79462 -247.155966 
L 265.100715 -250.390739 
L 268.40681 -253.62061 
L 271.712905 -256.858652 
L 275.019001 -260.082488 
L 278.325096 -263.313473 
L 281.631191 -266.535833 
L 284.937286 -269.763089 
L 288.243381 -272.998565 
L 291.549476 -276.214302 
L 294.855571 -279.432165 
L 298.161666 -282.66083 
L 301.467761 -285.889952 
L 304.773856 -289.11192 
L 308.079951 -292.321674 
L 311.386046 -295.515942 
L 314.692141 -298.742786 
L 317.998236 -301.961703 
L 321.304331 -305.167668 
L 324.610426 -308.37617 
L 327.916521 -311.578836 
L 331.222616 -314.79295 
L 334.528711 -318.014225 
L 337.834806 -321.242911 
L 341.140901 -324.46782 
L 344.446996 -327.68771 
L 347.753091 -330.896939 
L 351.059186 -334.12512 
L 354.365282 -337.340751 
L 357.671377 -340.554153 
L 360.977472 -343.760074 
L 364.283567 -346.964955 
L 367.589662 -350.169837 
L 370.895757 -353.388459 
L 374.201852 -356.603563 
L 377.507947 -359.806026 
L 380.814042 -363.008452 
L 384.120137 -366.210359 
L 387.426232 -369.412397 
L 390.732327 -372.614605 
L 394.038422 -375.816813 
L 397.344517 -379.019045 
L 397.344517 -382.797401 
L 397.344517 -382.797401 
L 394.038422 -379.532242 
L 390.732327 -376.255978 
L 387.426232 -372.978147 
L 384.120137 -369.723173 
L 380.814042 -366.460998 
L 377.507947 -363.186427 
L 374.201852 -359.911633 
L 370.895757 -356.631661 
L 367.589662 -353.362638 
L 364.283567 -350.100013 
L 360.977472 -346.830364 
L 357.671377 -343.572086 
L 354.365282 -340.312986 
L 351.059186 -337.033581 
L 347.753091 -333.768469 
L 344.446996 -330.500858 
L 341.140901 -327.232206 
L 337.834806 -323.954561 
L 334.528711 -320.676874 
L 331.222616 -317.407778 
L 327.916521 -314.133032 
L 324.610426 -310.867926 
L 321.304331 -307.6032 
L 317.998236 -304.338351 
L 314.692141 -301.073711 
L 311.386046 -297.819623 
L 308.079951 -294.557522 
L 304.773856 -291.285698 
L 301.467761 -288.036959 
L 298.161666 -284.779302 
L 294.855571 -281.526448 
L 291.549476 -278.273247 
L 288.243381 -275.01668 
L 284.937286 -271.75513 
L 281.631191 -268.494994 
L 278.325096 -265.226211 
L 275.019001 -261.957456 
L 271.712905 -258.704965 
L 268.40681 -255.449674 
L 265.100715 -252.190732 
L 261.79462 -248.927097 
L 258.488525 -245.676433 
L 255.18243 -242.435384 
L 251.876335 -239.190662 
L 248.57024 -235.940378 
L 245.264145 -232.6961 
L 241.95805 -229.456992 
L 238.651955 -226.202448 
L 235.34586 -222.956043 
L 232.039765 -219.711932 
L 228.73367 -216.465467 
L 225.427575 -213.223321 
L 222.12148 -209.996337 
L 218.815385 -206.759567 
L 215.50929 -203.524399 
L 212.203195 -200.281127 
L 208.8971 -197.049668 
L 205.591005 -193.811948 
L 202.28491 -190.578685 
L 198.978815 -187.362688 
L 195.67272 -184.131317 
L 192.366624 -180.895144 
L 189.060529 -177.647572 
L 185.754434 -174.415366 
L 182.448339 -171.188153 
L 179.142244 -167.960304 
L 175.836149 -164.746073 
L 172.530054 -161.518137 
L 169.223959 -158.292674 
L 165.917864 -155.069713 
L 162.611769 -151.850088 
L 159.305674 -148.637903 
L 155.999579 -145.425862 
L 152.693484 -142.216351 
L 149.387389 -139.006461 
L 146.081294 -135.781295 
L 142.775199 -132.565222 
L 139.469104 -129.347127 
L 136.163009 -126.134697 
L 132.856914 -122.92627 
L 129.550819 -119.713128 
L 126.244724 -116.497407 
L 122.938629 -113.287266 
L 119.632534 -110.074751 
L 116.326439 -106.860118 
L 113.020343 -103.647688 
L 109.714248 -100.435258 
L 106.408153 -97.223023 
L 103.102058 -94.010864 
L 99.795963 -90.819806 
L 96.489868 -87.623885 
L 93.183773 -84.420578 
L 89.877678 -81.204838 
L 86.571583 -77.98902 
L 83.265488 -74.792534 
L 79.959393 -71.582074 
L 76.653298 -68.370567 
L 73.347203 -65.148092 
L 70.041108 -61.925492 
z
" style="stroke: #ffffff; stroke-opacity: 0.15"/>
    </defs>
    <g clip-path="url(#p3b4cef9d12)">
     <use xlink:href="#m04255b6f5b" x="0" y="420.814219" style="fill: #ff0000; fill-opacity: 0.15; stroke: #ffffff; stroke-opacity: 0.15"/>
    </g>
   </g>
   <g id="line2d_19">
    <path d="M 70.041108 360.712405 
L 73.347203 357.47142 
L 76.653298 354.230435 
L 79.959393 350.98945 
L 83.265488 347.748465 
L 86.571583 344.50748 
L 89.877678 341.266495 
L 93.183773 338.02551 
L 96.489868 334.784525 
L 99.795963 331.54354 
L 103.102058 328.302555 
L 106.408153 325.06157 
L 109.714248 321.820585 
L 113.020343 318.5796 
L 116.326439 315.338615 
L 119.632534 312.09763 
L 122.938629 308.856645 
L 126.244724 305.61566 
L 129.550819 302.374675 
L 132.856914 299.13369 
L 136.163009 295.892705 
L 139.469104 292.65172 
L 142.775199 289.410735 
L 146.081294 286.16975 
L 149.387389 282.928765 
L 152.693484 279.68778 
L 155.999579 276.446795 
L 159.305674 273.20581 
L 162.611769 269.964825 
L 165.917864 266.72384 
L 169.223959 263.482855 
L 172.530054 260.24187 
L 175.836149 257.000885 
L 179.142244 253.7599 
L 182.448339 250.518915 
L 185.754434 247.27793 
L 189.060529 244.036945 
L 192.366624 240.79596 
L 195.67272 237.554975 
L 198.978815 234.31399 
L 202.28491 231.073005 
L 205.591005 227.83202 
L 208.8971 224.591035 
L 212.203195 221.35005 
L 215.50929 218.109065 
L 218.815385 214.86808 
L 222.12148 211.627095 
L 225.427575 208.38611 
L 228.73367 205.145125 
L 232.039765 201.90414 
L 235.34586 198.663155 
L 238.651955 195.42217 
L 241.95805 192.181185 
L 245.264145 188.9402 
L 248.57024 185.699215 
L 251.876335 182.45823 
L 255.18243 179.217245 
L 258.488525 175.97626 
L 261.79462 172.735275 
L 265.100715 169.49429 
L 268.40681 166.253305 
L 271.712905 163.01232 
L 275.019001 159.771335 
L 278.325096 156.53035 
L 281.631191 153.289365 
L 284.937286 150.04838 
L 288.243381 146.807395 
L 291.549476 143.56641 
L 294.855571 140.325425 
L 298.161666 137.08444 
L 301.467761 133.843455 
L 304.773856 130.60247 
L 308.079951 127.361485 
L 311.386046 124.1205 
L 314.692141 120.879515 
L 317.998236 117.63853 
L 321.304331 114.397545 
L 324.610426 111.15656 
L 327.916521 107.915575 
L 331.222616 104.67459 
L 334.528711 101.433605 
L 337.834806 98.19262 
L 341.140901 94.951635 
L 344.446996 91.71065 
L 347.753091 88.469665 
L 351.059186 85.22868 
L 354.365282 81.987695 
L 357.671377 78.74671 
L 360.977472 75.505725 
L 364.283567 72.26474 
L 367.589662 69.023755 
L 370.895757 65.78277 
L 374.201852 62.541785 
L 377.507947 59.3008 
L 380.814042 56.059815 
L 384.120137 52.81883 
L 387.426232 49.577845 
L 390.732327 46.33686 
L 394.038422 43.095875 
L 397.344517 39.85489 
" clip-path="url(#p3b4cef9d12)" style="fill: none; stroke: #ff0000; stroke-width: 2.25; stroke-linecap: round"/>
   </g>
   <g id="patch_3">
    <path d="M 53.675938 378.793125 
L 53.675938 21.789375 
" style="fill: none; stroke: #cccccc; stroke-width: 1.25; stroke-linejoin: miter; stroke-linecap: square"/>
   </g>
   <g id="patch_4">
    <path d="M 413.709687 378.793125 
L 413.709687 21.789375 
" style="fill: none; stroke: #cccccc; stroke-width: 1.25; stroke-linejoin: miter; stroke-linecap: square"/>
   </g>
   <g id="patch_5">
    <path d="M 53.675938 378.793125 
L 413.709687 378.793125 
" style="fill: none; stroke: #cccccc; stroke-width: 1.25; stroke-linejoin: miter; stroke-linecap: square"/>
   </g>
   <g id="patch_6">
    <path d="M 53.675938 21.789375 
L 413.709687 21.789375 
" style="fill: none; stroke: #cccccc; stroke-width: 1.25; stroke-linejoin: miter; stroke-linecap: square"/>
   </g>
   <g id="text_21">
    <!-- Predictions vs Actuals  •  RMSE=0.1  MAE=0.1  R²=0.995 -->
    <g style="fill: #262626" transform="translate(81.02375 15.789375) scale(0.12 -0.12)">
     <defs>
      <path id="ArialMT-73" d="M 197 991 
L 753 1078 
Q 800 744 1014 566 
Q 1228 388 1613 388 
Q 2000 388 2187 545 
Q 2375 703 2375 916 
Q 2375 1106 2209 1216 
Q 2094 1291 1634 1406 
Q 1016 1563 777 1677 
Q 538 1791 414 1992 
Q 291 2194 291 2438 
Q 291 2659 392 2848 
Q 494 3038 669 3163 
Q 800 3259 1026 3326 
Q 1253 3394 1513 3394 
Q 1903 3394 2198 3281 
Q 2494 3169 2634 2976 
Q 2775 2784 2828 2463 
L 2278 2388 
Q 2241 2644 2061 2787 
Q 1881 2931 1553 2931 
Q 1166 2931 1000 2803 
Q 834 2675 834 2503 
Q 834 2394 903 2306 
Q 972 2216 1119 2156 
Q 1203 2125 1616 2013 
Q 2213 1853 2448 1751 
Q 2684 1650 2818 1456 
Q 2953 1263 2953 975 
Q 2953 694 2789 445 
Q 2625 197 2315 61 
Q 2006 -75 1616 -75 
Q 969 -75 630 194 
Q 291 463 197 991 
z
" transform="scale(0.015625)"/>
      <path id="ArialMT-76" d="M 1344 0 
L 81 3319 
L 675 3319 
L 1388 1331 
Q 1503 1009 1600 663 
Q 1675 925 1809 1294 
L 2547 3319 
L 3125 3319 
L 1869 0 
L 1344 0 
z
" transform="scale(0.015625)"/>
      <path id="ArialMT-2022" d="M 341 2244 
Q 341 2572 573 2803 
Q 806 3034 1131 3034 
Q 1459 3034 1692 2803 
Q 1925 2572 1925 2244 
Q 1925 1916 1692 1683 
Q 1459 1450 1131 1450 
Q 806 1450 573 1683 
Q 341 1916 341 2244 
z
" transform="scale(0.015625)"/>
      <path id="ArialMT-52" d="M 503 0 
L 503 4581 
L 2534 4581 
Q 3147 4581 3465 4457 
Q 3784 4334 3975 4021 
Q 4166 3709 4166 3331 
Q 4166 2844 3850 2509 
Q 3534 2175 2875 2084 
Q 3116 1969 3241 1856 
Q 3506 1613 3744 1247 
L 4541 0 
L 3778 0 
L 3172 953 
Q 2906 1366 2734 1584 
Q 2563 1803 2427 1890 
Q 2291 1978 2150 2013 
Q 2047 2034 1813 2034 
L 1109 2034 
L 1109 0 
L 503 0 
z
M 1109 2559 
L 2413 2559 
Q 2828 2559 3062 2645 
Q 3297 2731 3419 2920 
Q 3541 3109 3541 3331 
Q 3541 3656 3305 3865 
Q 3069 4075 2559 4075 
L 1109 4075 
L 1109 2559 
z
" transform="scale(0.015625)"/>
      <path id="ArialMT-4d" d="M 475 0 
L 475 4581 
L 1388 4581 
L 2472 1338 
Q 2622 884 2691 659 
Q 2769 909 2934 1394 
L 4031 4581 
L 4847 4581 
L 4847 0 
L 4263 0 
L 4263 3834 
L 2931 0 
L 2384 0 
L 1059 3900 
L 1059 0 
L 475 0 
z
" transform="scale(0.015625)"/>
      <path id="ArialMT-53" d="M 288 1472 
L 859 1522 
Q 900 1178 1048 958 
Q 1197 738 1509 602 
Q 1822 466 2213 466 
Q 2559 466 2825 569 
Q 3091 672 3220 851 
Q 3350 1031 3350 1244 
Q 3350 1459 3225 1620 
Q 3100 1781 2813 1891 
Q 2628 1963 1997 2114 
Q 1366 2266 1113 2400 
Q 784 2572 623 2826 
Q 463 3081 463 3397 
Q 463 3744 659 4045 
Q 856 4347 1234 4503 
Q 1613 4659 2075 4659 
Q 2584 4659 2973 4495 
Q 3363 4331 3572 4012 
Q 3781 3694 3797 3291 
L 3216 3247 
Q 3169 3681 2898 3903 
Q 2628 4125 2100 4125 
Q 1550 4125 1298 3923 
Q 1047 3722 1047 3438 
Q 1047 3191 1225 3031 
Q 1400 2872 2139 2705 
Q 2878 2538 3153 2413 
Q 3553 2228 3743 1945 
Q 3934 1663 3934 1294 
Q 3934 928 3725 604 
Q 3516 281 3123 101 
Q 2731 -78 2241 -78 
Q 1619 -78 1198 103 
Q 778 284 539 648 
Q 300 1013 288 1472 
z
" transform="scale(0.015625)"/>
      <path id="ArialMT-45" d="M 506 0 
L 506 4581 
L 3819 4581 
L 3819 4041 
L 1113 4041 
L 1113 2638 
L 3647 2638 
L 3647 2100 
L 1113 2100 
L 1113 541 
L 3925 541 
L 3925 0 
L 506 0 
z
" transform="scale(0.015625)"/>
      <path id="ArialMT-3d" d="M 3381 2694 
L 356 2694 
L 356 3219 
L 3381 3219 
L 3381 2694 
z
M 3381 1303 
L 356 1303 
L 356 1828 
L 3381 1828 
L 3381 1303 
z
" transform="scale(0.015625)"/>
      <path id="ArialMT-b2" d="M 78 2291 
Q 97 2469 225 2647 
Q 422 2916 872 3242 
Q 1322 3569 1406 3663 
Q 1522 3791 1522 3925 
Q 1522 4075 1412 4172 
Q 1303 4269 1091 4269 
Q 884 4269 782 4195 
Q 681 4122 616 3913 
L 144 3963 
Q 234 4309 457 4473 
Q 681 4638 1100 4638 
Q 1572 4638 1792 4453 
Q 2013 4269 2013 4003 
Q 2013 3741 1828 3506 
Q 1688 3331 1188 2972 
Q 928 2781 819 2669 
L 2025 2669 
L 2025 2291 
L 78 2291 
z
" transform="scale(0.015625)"/>
      <path id="ArialMT-39" d="M 350 1059 
L 891 1109 
Q 959 728 1153 556 
Q 1347 384 1650 384 
Q 1909 384 2104 503 
Q 2300 622 2425 820 
Q 2550 1019 2634 1356 
Q 2719 1694 2719 2044 
Q 2719 2081 2716 2156 
Q 2547 1888 2255 1720 
Q 1963 1553 1622 1553 
Q 1053 1553 659 1965 
Q 266 2378 266 3053 
Q 266 3750 677 4175 
Q 1088 4600 1706 4600 
Q 2153 4600 2523 4359 
Q 2894 4119 3086 3673 
Q 3278 3228 3278 2384 
Q 3278 1506 3087 986 
Q 2897 466 2520 194 
Q 2144 -78 1638 -78 
Q 1100 -78 759 220 
Q 419 519 350 1059 
z
M 2653 3081 
Q 2653 3566 2395 3850 
Q 2138 4134 1775 4134 
Q 1400 4134 1122 3828 
Q 844 3522 844 3034 
Q 844 2597 1108 2323 
Q 1372 2050 1759 2050 
Q 2150 2050 2401 2323 
Q 2653 2597 2653 3081 
z
" transform="scale(0.015625)"/>
     </defs>
     <use xlink:href="#ArialMT-50"/>
     <use xlink:href="#ArialMT-72" transform="translate(66.699219 0)"/>
     <use xlink:href="#ArialMT-65" transform="translate(100 0)"/>
     <use xlink:href="#ArialMT-64" transform="translate(155.615234 0)"/>
     <use xlink:href="#ArialMT-69" transform="translate(211.230469 0)"/>
     <use xlink:href="#ArialMT-63" transform="translate(233.447266 0)"/>
     <use xlink:href="#ArialMT-74" transform="translate(283.447266 0)"/>
     <use xlink:href="#ArialMT-69" transform="translate(311.230469 0)"/>
     <use xlink:href="#ArialMT-6f" transform="translate(333.447266 0)"/>
     <use xlink:href="#ArialMT-6e" transform="translate(389.0625 0)"/>
     <use xlink:href="#ArialMT-73" transform="translate(444.677734 0)"/>
     <use xlink:href="#ArialMT-20" transform="translate(494.677734 0)"/>
     <use xlink:href="#ArialMT-76" transform="translate(522.460938 0)"/>
     <use xlink:href="#ArialMT-73" transform="translate(572.460938 0)"/>
     <use xlink:href="#ArialMT-20" transform="translate(622.460938 0)"/>
     <use xlink:href="#ArialMT-41" transform="translate(644.744141 0)"/>
     <use xlink:href="#ArialMT-63" transform="translate(711.443359 0)"/>
     <use xlink:href="#ArialMT-74" transform="translate(761.443359 0)"/>
     <use xlink:href="#ArialMT-75" transform="translate(789.226562 0)"/>
     <use xlink:href="#ArialMT-61" transform="translate(844.841797 0)"/>
     <use xlink:href="#ArialMT-6c" transform="translate(900.457031 0)"/>
     <use xlink:href="#ArialMT-73" transform="translate(922.673828 0)"/>
     <use xlink:href="#ArialMT-20" transform="translate(972.673828 0)"/>
     <use xlink:href="#ArialMT-20" transform="translate(1000.457031 0)"/>
     <use xlink:href="#ArialMT-2022" transform="translate(1028.240234 0)"/>
     <use xlink:href="#ArialMT-20" transform="translate(1063.25 0)"/>
     <use xlink:href="#ArialMT-20" transform="translate(1091.033203 0)"/>
     <use xlink:href="#ArialMT-52" transform="translate(1118.816406 0)"/>
     <use xlink:href="#ArialMT-4d" transform="translate(1191.033203 0)"/>
     <use xlink:href="#ArialMT-53" transform="translate(1274.333984 0)"/>
     <use xlink:href="#ArialMT-45" transform="translate(1341.033203 0)"/>
     <use xlink:href="#ArialMT-3d" transform="translate(1407.732422 0)"/>
     <use xlink:href="#ArialMT-30" transform="translate(1466.130859 0)"/>
     <use xlink:href="#ArialMT-2e" transform="translate(1521.746094 0)"/>
     <use xlink:href="#ArialMT-31" transform="translate(1549.529297 0)"/>
     <use xlink:href="#ArialMT-20" transform="translate(1605.144531 0)"/>
     <use xlink:href="#ArialMT-20" transform="translate(1632.927734 0)"/>
     <use xlink:href="#ArialMT-4d" transform="translate(1660.710938 0)"/>
     <use xlink:href="#ArialMT-41" transform="translate(1744.011719 0)"/>
     <use xlink:href="#ArialMT-45" transform="translate(1810.710938 0)"/>
     <use xlink:href="#ArialMT-3d" transform="translate(1877.410156 0)"/>
     <use xlink:href="#ArialMT-30" transform="translate(1935.808594 0)"/>
     <use xlink:href="#ArialMT-2e" transform="translate(1991.423828 0)"/>
     <use xlink:href="#ArialMT-31" transform="translate(2019.207031 0)"/>
     <use xlink:href="#ArialMT-20" transform="translate(2074.822266 0)"/>
     <use xlink:href="#ArialMT-20" transform="translate(2102.605469 0)"/>
     <use xlink:href="#ArialMT-52" transform="translate(2130.388672 0)"/>
     <use xlink:href="#ArialMT-b2" transform="translate(2202.605469 0)"/>
     <use xlink:href="#ArialMT-3d" transform="translate(2235.90625 0)"/>
     <use xlink:href="#ArialMT-30" transform="translate(2294.304688 0)"/>
     <use xlink:href="#ArialMT-2e" transform="translate(2349.919922 0)"/>
     <use xlink:href="#ArialMT-39" transform="translate(2377.703125 0)"/>
     <use xlink:href="#ArialMT-39" transform="translate(2433.318359 0)"/>
     <use xlink:href="#ArialMT-35" transform="translate(2488.933594 0)"/>
    </g>
   </g>
   <g id="legend_1">
    <g id="patch_7">
     <path d="M 401.609687 36.089375 
L 406.009687 36.089375 
Q 408.209687 36.089375 408.209687 33.889375 
L 408.209687 29.489375 
Q 408.209687 27.289375 406.009687 27.289375 
L 401.609687 27.289375 
Q 399.409687 27.289375 399.409687 29.489375 
L 399.409687 33.889375 
Q 399.409687 36.089375 401.609687 36.089375 
z
" style="fill: #ffffff; opacity: 0.8; stroke: #cccccc; stroke-linejoin: miter"/>
    </g>
   </g>
  </g>
 </g>
 <defs>
  <clipPath id="p3b4cef9d12">
   <rect x="53.675938" y="21.789375" width="360.03375" height="357.00375"/>
  </clipPath>
 </defs>
</svg>
